# File created by Blade
# Date/Time:  Wed Jan 21 17:10:37 2015
# Frame Rate: 120.000 fps
#------------------------------------------------------
:FULLY-SPECIFIED
:DEGREES
852
root 19.758232 3.287241 -11.575053 -235.373960 4.465012 -184.877647
Spine 63.960039 5.453232 -8.288104
Head -13.785459 -10.963194 5.608351
LeftShoulder 12.122358 -28.973410 -15.117528
LeftArm 18.081903 27.603103 -66.632874
LeftForeArm -67.926483 -0.000000 102.037313
LeftHand -2.218125 -0.000000 -0.477407
LeftHandThumb1 -26.253704 0.000000 33.147579
RightShoulder 6.554843 8.459003 -21.304776
RightArm 68.499611 6.576377 6.219625
RightForeArm -6.735947 0.000000 109.707400
RightHand -15.433915 -0.000000 -2.288634
RightHandThumb1 -24.326973 -0.000000 -32.862282
LeftUpLeg -36.796726 32.870036 -3.745973
LeftLeg -0.990267 -0.000000 0.000000
LeftFoot 18.688403 34.862062 -0.851197
LeftToeBase 18.240422 -0.000000 -0.000000
RightUpLeg -112.347759 15.862393 82.199396
RightLeg 117.134920 -0.000000 -0.000000
RightFoot -17.661442 -8.087072 28.709268
RightToeBase 18.484959 -0.000000 -0.000000
853
root 19.754132 3.284151 -11.574302 -235.347335 4.449016 -184.876753
Spine 63.924705 5.468042 -8.309729
Head -13.713922 -11.025999 5.636567
LeftShoulder 12.142393 -28.982617 -15.140972
LeftArm 18.033112 27.601940 -66.646028
LeftForeArm -67.956624 -0.000000 101.998856
LeftHand -2.277664 -0.000000 -0.421146
LeftHandThumb1 -26.253704 0.000000 33.147579
RightShoulder 6.518529 8.362791 -21.238442
RightArm 68.542801 6.660559 6.162869
RightForeArm -6.567843 -0.000000 109.662298
RightHand -15.547464 -0.000000 -2.367407
RightHandThumb1 -24.326973 -0.000000 -32.862282
LeftUpLeg -36.837150 32.847496 -3.787078
LeftLeg -0.987160 -0.000000 0.000000
LeftFoot 18.718825 34.838484 -0.821054
LeftToeBase 18.234074 -0.000000 -0.000000
RightUpLeg -112.366114 15.858445 82.124374
RightLeg 116.991615 -0.000000 -0.000000
RightFoot -19.093048 -9.312175 27.563131
RightToeBase 17.370895 -0.000000 -0.000000
854
root 19.751561 3.282498 -11.573310 -235.335707 4.447606 -184.877548
Spine 63.905863 5.481741 -8.336918
Head -13.644414 -11.065385 5.645243
LeftShoulder 12.139276 -28.978323 -15.157921
LeftArm 18.033762 27.602904 -66.609060
LeftForeArm -68.031385 -0.000000 101.953532
LeftHand -2.307662 -0.000000 -0.226758
LeftHandThumb1 -26.253704 0.000000 33.147579
RightShoulder 6.524801 8.348197 -21.180512
RightArm 68.526459 6.642971 6.129910
RightForeArm -6.490909 -0.000000 109.614626
RightHand -15.734500 -0.000000 -2.426090
RightHandThumb1 -24.326973 -0.000000 -32.862282
LeftUpLeg -36.848131 32.829455 -3.794423
LeftLeg -0.988503 -0.000000 0.000000
LeftFoot 18.707580 34.817961 -0.834309
LeftToeBase 18.285831 -0.000000 -0.000000
RightUpLeg -112.366587 15.830007 82.065638
RightLeg 116.856382 -0.000000 -0.000000
RightFoot -20.471183 -10.652468 26.768060
RightToeBase 16.545665 -0.000000 -0.000000
855
root 19.747139 3.280268 -11.572058 -235.318928 4.433743 -184.877661
Spine 63.884182 5.487020 -8.370915
Head -13.581016 -11.101905 5.656885
LeftShoulder 12.167675 -29.030590 -15.187485
LeftArm 17.904819 27.565312 -66.661729
LeftForeArm -68.262604 -0.000000 101.908982
LeftHand -2.328204 -0.000000 -0.266034
LeftHandThumb1 -26.253704 0.000000 33.147579
RightShoulder 6.525244 8.307247 -21.137723
RightArm 68.507383 6.655711 6.098033
RightForeArm -6.372907 0.000000 109.551193
RightHand -15.846320 -0.000000 -2.446324
RightHandThumb1 -24.326973 -0.000000 -32.862282
LeftUpLeg -36.860450 32.790462 -3.807848
LeftLeg -0.990779 -0.000000 0.000000
LeftFoot 18.704325 34.821232 -0.874620
LeftToeBase 18.244313 -0.000000 -0.000000
RightUpLeg -112.388640 15.787958 81.946407
RightLeg 116.735700 -0.000000 -0.000000
RightFoot -21.683504 -11.641722 26.547147
RightToeBase 16.194019 -0.000000 -0.000000
856
root 19.742392 3.279824 -11.570797 -235.314245 4.414101 -184.887156
Spine 63.876604 5.499873 -8.422101
Head -13.510544 -11.142431 5.667484
LeftShoulder 12.160893 -29.024073 -15.184999
LeftArm 17.940056 27.650353 -66.622705
LeftForeArm -67.792302 -0.000000 101.924362
LeftHand -2.418617 0.000000 -0.063047
LeftHandThumb1 -26.253704 0.000000 33.147579
RightShoulder 6.541393 8.266501 -21.085993
RightArm 68.469892 6.674843 6.049059
RightForeArm -6.256120 0.000000 109.492635
RightHand -15.974302 -0.000000 -2.486487
RightHandThumb1 -24.326973 -0.000000 -32.862282
LeftUpLeg -36.866455 32.778812 -3.844978
LeftLeg -0.997730 -0.000000 0.000000
LeftFoot 18.709672 34.805432 -0.878022
LeftToeBase 18.246133 -0.000000 -0.000000
RightUpLeg -112.415413 15.738308 81.832571
RightLeg 116.613226 -0.000000 -0.000000
RightFoot -22.780605 -12.832507 26.106501
RightToeBase 15.924837 -0.000000 -0.000000
857
root 19.738699 3.279080 -11.569567 -235.311365 4.404193 -184.898075
Spine 63.867583 5.514035 -8.471641
Head -13.443570 -11.170179 5.664782
LeftShoulder 12.163348 -29.047574 -15.186319
LeftArm 17.909359 27.602059 -66.652144
LeftForeArm -67.733742 -0.000000 101.793929
LeftHand -2.548037 0.000000 -0.309009
LeftHandThumb1 -26.253704 0.000000 33.147579
RightShoulder 6.566785 8.286899 -21.057229
RightArm 68.414048 6.619903 6.010401
RightForeArm -6.157305 -0.000000 109.448357
RightHand -16.220565 0.000000 -2.518699
RightHandThumb1 -24.326973 -0.000000 -32.862282
LeftUpLeg -36.867469 32.770415 -3.867672
LeftLeg -1.004460 -0.000000 0.000000
LeftFoot 18.724463 34.790394 -0.870242
LeftToeBase 18.236044 -0.000000 -0.000000
RightUpLeg -112.426006 15.685305 81.720270
RightLeg 116.510619 -0.000000 -0.000000
RightFoot -23.871072 -13.923941 25.810449
RightToeBase 15.693714 -0.000000 -0.000000
858
root 19.735233 3.277034 -11.567813 -235.295087 4.411900 -184.903098
Spine 63.850914 5.524557 -8.484783
Head -13.389602 -11.206433 5.640808
LeftShoulder 12.169293 -29.037731 -15.200165
LeftArm 17.942631 27.613542 -66.606451
LeftForeArm -67.999580 -0.000000 101.743173
LeftHand -2.603989 -0.000000 -0.082878
LeftHandThumb1 -26.253704 0.000000 33.147579
RightShoulder 6.575632 8.274847 -21.054219
RightArm 68.370237 6.582438 5.988193
RightForeArm -6.128856 0.000000 109.399348
RightHand -16.230751 0.000000 -2.607756
RightHandThumb1 -24.326973 -0.000000 -32.862282
LeftUpLeg -36.888150 32.765480 -3.877771
LeftLeg -1.004175 -0.000000 0.000000
LeftFoot 18.719663 34.778813 -0.897543
LeftToeBase 18.204565 -0.000000 -0.000000
RightUpLeg -112.436837 15.630934 81.605551
RightLeg 116.413094 -0.000000 -0.000000
RightFoot -24.860260 -14.929011 25.717337
RightToeBase 15.069590 -0.000000 -0.000000
859
root 19.733336 3.276193 -11.566866 -235.289503 4.419198 -184.899143
Spine 63.845120 5.525267 -8.512567
Head -13.333227 -11.211100 5.613422
LeftShoulder 12.179799 -29.027981 -15.202108
LeftArm 17.916445 27.607569 -66.595286
LeftForeArm -68.024054 -0.000000 101.719530
LeftHand -2.587090 -0.000000 -0.117953
LeftHandThumb1 -26.253704 0.000000 33.147579
RightShoulder 6.601938 8.246834 -21.046700
RightArm 68.340761 6.587513 5.967655
RightForeArm -6.063423 -0.000000 109.359632
RightHand -16.407483 0.000000 -2.548398
RightHandThumb1 -24.326973 -0.000000 -32.862282
LeftUpLeg -36.893755 32.759308 -3.875611
LeftLeg -1.008861 -0.000000 0.000000
LeftFoot 18.745788 34.759132 -0.874767
LeftToeBase 18.228990 -0.000000 -0.000000
RightUpLeg -112.455727 15.573362 81.505076
RightLeg 116.342071 -0.000000 -0.000000
RightFoot -25.748164 -15.977769 25.484587
RightToeBase 14.540017 -0.000000 -0.000000
860
root 19.729990 3.275592 -11.565875 -235.277809 4.417883 -184.896945
Spine 63.831732 5.519016 -8.552806
Head -13.272608 -11.202351 5.593002
LeftShoulder 12.185752 -29.013930 -15.203820
LeftArm 17.898715 27.583785 -66.598845
LeftForeArm -68.002057 -0.000000 101.651896
LeftHand -2.610036 0.000000 -0.257874
LeftHandThumb1 -26.253704 0.000000 33.147579
RightShoulder 6.625959 8.193313 -21.040545
RightArm 68.323007 6.610476 5.946272
RightForeArm -6.039581 0.000000 109.333420
RightHand -16.632222 -0.000000 -2.460109
RightHandThumb1 -24.326973 -0.000000 -32.862282
LeftUpLeg -36.905186 32.748585 -3.886508
LeftLeg -1.013576 -0.000000 0.000000
LeftFoot 18.719297 34.758538 -0.919804
LeftToeBase 18.265212 -0.000000 -0.000000
RightUpLeg -112.477060 15.524569 81.401768
RightLeg 116.282132 -0.000000 -0.000000
RightFoot -26.594072 -17.288667 24.892974
RightToeBase 14.559730 -0.000000 -0.000000
861
root 19.728471 3.274935 -11.565391 -235.266815 4.426268 -184.897344
Spine 63.821437 5.523712 -8.585875
Head -13.242231 -11.206846 5.576308
LeftShoulder 12.186279 -29.003463 -15.196886
LeftArm 17.882789 27.594391 -66.595064
LeftForeArm -67.961242 0.000000 101.614463
LeftHand -2.582120 -0.000000 -0.261652
LeftHandThumb1 -26.253704 0.000000 33.147579
RightShoulder 6.634560 8.161191 -21.028867
RightArm 68.324420 6.608735 5.919163
RightForeArm -6.051920 -0.000000 109.307948
RightHand -16.801170 -0.000000 -2.414737
RightHandThumb1 -24.326973 -0.000000 -32.862282
LeftUpLeg -36.917770 32.749877 -3.891146
LeftLeg -1.022045 -0.000000 0.000000
LeftFoot 18.734169 34.779576 -0.914870
LeftToeBase 18.234001 -0.000000 -0.000000
RightUpLeg -112.493798 15.472045 81.295078
RightLeg 116.226086 -0.000000 -0.000000
RightFoot -27.346102 -18.396176 24.892072
RightToeBase 14.035016 -0.000000 -0.000000
862
root 19.726109 3.273360 -11.565399 -235.246848 4.424665 -184.904489
Spine 63.809459 5.529848 -8.629662
Head -13.233532 -11.207467 5.559760
LeftShoulder 12.179838 -29.007597 -15.191001
LeftArm 17.857744 27.613306 -66.601873
LeftForeArm -67.906921 0.000000 101.590705
LeftHand -2.589747 0.000000 -0.284321
LeftHandThumb1 -26.253704 0.000000 33.147579
RightShoulder 6.643216 8.160062 -21.017157
RightArm 68.308704 6.576598 5.887980
RightForeArm -6.142322 0.000000 109.317638
RightHand -16.859092 0.000000 -2.401897
RightHandThumb1 -24.326973 -0.000000 -32.862282
LeftUpLeg -36.945504 32.753552 -3.916946
LeftLeg -1.025530 -0.000000 0.000000
LeftFoot 18.749831 34.784789 -0.890069
LeftToeBase 18.254736 -0.000000 -0.000000
RightUpLeg -112.503126 15.440571 81.167818
RightLeg 116.186311 -0.000000 -0.000000
RightFoot -28.167804 -19.567545 24.737940
RightToeBase 14.134095 -0.000000 -0.000000
